<svg width="300" height="445" viewBox="0 0 300 445" fill="none" xmlns="http://www.w3.org/2000/svg">
<rect width="300" height="444.622" fill="#CECECE"/>
<path d="M100.919 228.43V217.23H110.343V228.43H109.175V217.934L109.479 218.254H101.783L102.087 217.934V228.43H100.919ZM113.994 231.614C113.6 231.614 113.221 231.55 112.858 231.422C112.506 231.294 112.202 231.102 111.946 230.846L112.474 229.998C112.688 230.201 112.917 230.356 113.162 230.462C113.418 230.58 113.701 230.638 114.01 230.638C114.384 230.638 114.704 230.532 114.97 230.318C115.248 230.116 115.509 229.753 115.754 229.23L116.298 227.998L116.426 227.822L119.882 220.03H121.002L116.794 229.438C116.56 229.982 116.298 230.414 116.01 230.734C115.733 231.054 115.429 231.278 115.098 231.406C114.768 231.545 114.4 231.614 113.994 231.614ZM116.234 228.67L112.362 220.03H113.546L116.97 227.742L116.234 228.67ZM126.058 228.51C125.226 228.51 124.479 228.329 123.818 227.966C123.167 227.593 122.655 227.086 122.282 226.446C121.909 225.796 121.722 225.054 121.722 224.222C121.722 223.38 121.909 222.638 122.282 221.998C122.655 221.358 123.167 220.857 123.818 220.494C124.479 220.132 125.226 219.95 126.058 219.95C126.773 219.95 127.418 220.089 127.994 220.366C128.57 220.644 129.023 221.06 129.354 221.614L128.506 222.19C128.218 221.764 127.861 221.449 127.434 221.246C127.007 221.044 126.543 220.942 126.042 220.942C125.445 220.942 124.906 221.081 124.426 221.358C123.946 221.625 123.567 222.004 123.29 222.494C123.013 222.985 122.874 223.561 122.874 224.222C122.874 224.884 123.013 225.46 123.29 225.95C123.567 226.441 123.946 226.825 124.426 227.102C124.906 227.369 125.445 227.502 126.042 227.502C126.543 227.502 127.007 227.401 127.434 227.198C127.861 226.996 128.218 226.686 128.506 226.27L129.354 226.846C129.023 227.39 128.57 227.806 127.994 228.094C127.418 228.372 126.773 228.51 126.058 228.51ZM132.997 228.43V220.718L133.285 221.022H129.813V220.03H137.317V221.022H133.845L134.133 220.718V228.43H132.997ZM142.025 228.51C141.214 228.51 140.484 228.329 139.833 227.966C139.193 227.593 138.686 227.086 138.313 226.446C137.94 225.796 137.753 225.054 137.753 224.222C137.753 223.38 137.94 222.638 138.313 221.998C138.686 221.358 139.193 220.857 139.833 220.494C140.473 220.132 141.204 219.95 142.025 219.95C142.857 219.95 143.593 220.132 144.233 220.494C144.884 220.857 145.39 221.358 145.753 221.998C146.126 222.638 146.313 223.38 146.313 224.222C146.313 225.054 146.126 225.796 145.753 226.446C145.39 227.086 144.884 227.593 144.233 227.966C143.582 228.329 142.846 228.51 142.025 228.51ZM142.025 227.502C142.633 227.502 143.172 227.369 143.641 227.102C144.11 226.825 144.478 226.441 144.745 225.95C145.022 225.449 145.161 224.873 145.161 224.222C145.161 223.561 145.022 222.985 144.745 222.494C144.478 222.004 144.11 221.625 143.641 221.358C143.172 221.081 142.638 220.942 142.041 220.942C141.444 220.942 140.91 221.081 140.441 221.358C139.972 221.625 139.598 222.004 139.321 222.494C139.044 222.985 138.905 223.561 138.905 224.222C138.905 224.873 139.044 225.449 139.321 225.95C139.598 226.441 139.972 226.825 140.441 227.102C140.91 227.369 141.438 227.502 142.025 227.502ZM152.341 228.51C151.466 228.51 150.698 228.329 150.037 227.966C149.376 227.593 148.858 227.086 148.485 226.446C148.112 225.796 147.925 225.054 147.925 224.222C147.925 223.39 148.101 222.654 148.453 222.014C148.816 221.374 149.306 220.873 149.925 220.51C150.554 220.137 151.258 219.95 152.037 219.95C152.826 219.95 153.525 220.132 154.133 220.494C154.752 220.846 155.237 221.348 155.589 221.998C155.941 222.638 156.117 223.38 156.117 224.222C156.117 224.276 156.112 224.334 156.101 224.398C156.101 224.452 156.101 224.51 156.101 224.574H148.789V223.726H155.493L155.045 224.062C155.045 223.454 154.912 222.916 154.645 222.446C154.389 221.966 154.037 221.593 153.589 221.326C153.141 221.06 152.624 220.926 152.037 220.926C151.461 220.926 150.944 221.06 150.485 221.326C150.026 221.593 149.669 221.966 149.413 222.446C149.157 222.926 149.029 223.476 149.029 224.094V224.27C149.029 224.91 149.168 225.476 149.445 225.966C149.733 226.446 150.128 226.825 150.629 227.102C151.141 227.369 151.722 227.502 152.373 227.502C152.885 227.502 153.36 227.412 153.797 227.23C154.245 227.049 154.629 226.772 154.949 226.398L155.589 227.134C155.216 227.582 154.746 227.924 154.181 228.158C153.626 228.393 153.013 228.51 152.341 228.51ZM167.539 228.526C167.539 228.526 167.518 228.526 167.475 228.526C167.432 228.526 167.39 228.526 167.347 228.526C167.315 228.526 167.288 228.526 167.267 228.526C165.603 228.516 164.307 228.137 163.379 227.39C162.451 226.644 161.987 225.582 161.987 224.206C161.987 222.852 162.451 221.806 163.379 221.07C164.318 220.324 165.635 219.945 167.331 219.934C167.342 219.934 167.363 219.934 167.395 219.934C167.438 219.934 167.475 219.934 167.507 219.934C167.539 219.934 167.56 219.934 167.571 219.934C169.278 219.945 170.606 220.324 171.555 221.07C172.504 221.806 172.979 222.852 172.979 224.206C172.979 225.593 172.499 226.66 171.539 227.406C170.59 228.153 169.256 228.526 167.539 228.526ZM167.523 227.534C168.472 227.534 169.267 227.406 169.907 227.15C170.547 226.884 171.032 226.505 171.363 226.014C171.694 225.524 171.859 224.921 171.859 224.206C171.859 223.513 171.694 222.926 171.363 222.446C171.032 221.956 170.547 221.582 169.907 221.326C169.267 221.07 168.472 220.942 167.523 220.942C167.512 220.942 167.48 220.942 167.427 220.942C167.384 220.942 167.358 220.942 167.347 220.942C166.419 220.942 165.64 221.076 165.011 221.342C164.382 221.598 163.907 221.966 163.587 222.446C163.267 222.926 163.107 223.513 163.107 224.206C163.107 224.91 163.267 225.508 163.587 225.998C163.918 226.489 164.398 226.868 165.027 227.134C165.656 227.39 166.43 227.524 167.347 227.534C167.368 227.534 167.4 227.534 167.443 227.534C167.486 227.534 167.512 227.534 167.523 227.534ZM166.915 231.534V216.558H168.019V231.534H166.915ZM178.838 228.51C178.027 228.51 177.296 228.329 176.646 227.966C176.006 227.593 175.499 227.086 175.126 226.446C174.752 225.796 174.566 225.054 174.566 224.222C174.566 223.38 174.752 222.638 175.126 221.998C175.499 221.358 176.006 220.857 176.646 220.494C177.286 220.132 178.016 219.95 178.838 219.95C179.67 219.95 180.406 220.132 181.046 220.494C181.696 220.857 182.203 221.358 182.566 221.998C182.939 222.638 183.126 223.38 183.126 224.222C183.126 225.054 182.939 225.796 182.566 226.446C182.203 227.086 181.696 227.593 181.046 227.966C180.395 228.329 179.659 228.51 178.838 228.51ZM178.838 227.502C179.446 227.502 179.984 227.369 180.454 227.102C180.923 226.825 181.291 226.441 181.558 225.95C181.835 225.449 181.974 224.873 181.974 224.222C181.974 223.561 181.835 222.985 181.558 222.494C181.291 222.004 180.923 221.625 180.454 221.358C179.984 221.081 179.451 220.942 178.854 220.942C178.256 220.942 177.723 221.081 177.254 221.358C176.784 221.625 176.411 222.004 176.134 222.494C175.856 222.985 175.718 223.561 175.718 224.222C175.718 224.873 175.856 225.449 176.134 225.95C176.411 226.441 176.784 226.825 177.254 227.102C177.723 227.369 178.251 227.502 178.838 227.502ZM186.841 228.43V220.718L187.129 221.022H183.657V220.03H191.161V221.022H187.689L187.977 220.718V228.43H186.841ZM195.869 228.51C195.058 228.51 194.328 228.329 193.677 227.966C193.037 227.593 192.53 227.086 192.157 226.446C191.784 225.796 191.597 225.054 191.597 224.222C191.597 223.38 191.784 222.638 192.157 221.998C192.53 221.358 193.037 220.857 193.677 220.494C194.317 220.132 195.048 219.95 195.869 219.95C196.701 219.95 197.437 220.132 198.077 220.494C198.728 220.857 199.234 221.358 199.597 221.998C199.97 222.638 200.157 223.38 200.157 224.222C200.157 225.054 199.97 225.796 199.597 226.446C199.234 227.086 198.728 227.593 198.077 227.966C197.426 228.329 196.69 228.51 195.869 228.51ZM195.869 227.502C196.477 227.502 197.016 227.369 197.485 227.102C197.954 226.825 198.322 226.441 198.589 225.95C198.866 225.449 199.005 224.873 199.005 224.222C199.005 223.561 198.866 222.985 198.589 222.494C198.322 222.004 197.954 221.625 197.485 221.358C197.016 221.081 196.482 220.942 195.885 220.942C195.288 220.942 194.754 221.081 194.285 221.358C193.816 221.625 193.442 222.004 193.165 222.494C192.888 222.985 192.749 223.561 192.749 224.222C192.749 224.873 192.888 225.449 193.165 225.95C193.442 226.441 193.816 226.825 194.285 227.102C194.754 227.369 195.282 227.502 195.869 227.502Z" fill="black"/>
</svg>
