<svg width="279" height="382" viewBox="0 0 279 382" fill="none" xmlns="http://www.w3.org/2000/svg">
<rect width="278.023" height="382" fill="#CECECE"/>
<path d="M111.907 186.511V175.311H121.331V186.511H120.163V176.015L120.467 176.335H112.771L113.075 176.015V186.511H111.907ZM124.982 189.695C124.588 189.695 124.209 189.631 123.846 189.503C123.494 189.375 123.19 189.183 122.934 188.927L123.462 188.079C123.676 188.282 123.905 188.437 124.15 188.543C124.406 188.661 124.689 188.719 124.998 188.719C125.372 188.719 125.692 188.613 125.958 188.399C126.236 188.197 126.497 187.834 126.742 187.311L127.286 186.079L127.414 185.903L130.87 178.111H131.99L127.782 187.519C127.548 188.063 127.286 188.495 126.998 188.815C126.721 189.135 126.417 189.359 126.086 189.487C125.756 189.626 125.388 189.695 124.982 189.695ZM127.222 186.751L123.35 178.111H124.534L127.958 185.823L127.222 186.751ZM137.046 186.591C136.214 186.591 135.467 186.41 134.806 186.047C134.155 185.674 133.643 185.167 133.27 184.527C132.897 183.877 132.71 183.135 132.71 182.303C132.71 181.461 132.897 180.719 133.27 180.079C133.643 179.439 134.155 178.938 134.806 178.575C135.467 178.213 136.214 178.031 137.046 178.031C137.761 178.031 138.406 178.17 138.982 178.447C139.558 178.725 140.011 179.141 140.342 179.695L139.494 180.271C139.206 179.845 138.849 179.53 138.422 179.327C137.995 179.125 137.531 179.023 137.03 179.023C136.433 179.023 135.894 179.162 135.414 179.439C134.934 179.706 134.555 180.085 134.278 180.575C134.001 181.066 133.862 181.642 133.862 182.303C133.862 182.965 134.001 183.541 134.278 184.031C134.555 184.522 134.934 184.906 135.414 185.183C135.894 185.45 136.433 185.583 137.03 185.583C137.531 185.583 137.995 185.482 138.422 185.279C138.849 185.077 139.206 184.767 139.494 184.351L140.342 184.927C140.011 185.471 139.558 185.887 138.982 186.175C138.406 186.453 137.761 186.591 137.046 186.591ZM143.985 186.511V178.799L144.273 179.103H140.801V178.111H148.305V179.103H144.833L145.121 178.799V186.511H143.985ZM153.013 186.591C152.203 186.591 151.472 186.41 150.821 186.047C150.181 185.674 149.675 185.167 149.301 184.527C148.928 183.877 148.741 183.135 148.741 182.303C148.741 181.461 148.928 180.719 149.301 180.079C149.675 179.439 150.181 178.938 150.821 178.575C151.461 178.213 152.192 178.031 153.013 178.031C153.845 178.031 154.581 178.213 155.221 178.575C155.872 178.938 156.379 179.439 156.741 180.079C157.115 180.719 157.301 181.461 157.301 182.303C157.301 183.135 157.115 183.877 156.741 184.527C156.379 185.167 155.872 185.674 155.221 186.047C154.571 186.41 153.835 186.591 153.013 186.591ZM153.013 185.583C153.621 185.583 154.16 185.45 154.629 185.183C155.099 184.906 155.467 184.522 155.733 184.031C156.011 183.53 156.149 182.954 156.149 182.303C156.149 181.642 156.011 181.066 155.733 180.575C155.467 180.085 155.099 179.706 154.629 179.439C154.16 179.162 153.627 179.023 153.029 179.023C152.432 179.023 151.899 179.162 151.429 179.439C150.96 179.706 150.587 180.085 150.309 180.575C150.032 181.066 149.893 181.642 149.893 182.303C149.893 182.954 150.032 183.53 150.309 184.031C150.587 184.522 150.96 184.906 151.429 185.183C151.899 185.45 152.427 185.583 153.013 185.583ZM163.329 186.591C162.454 186.591 161.686 186.41 161.025 186.047C160.364 185.674 159.846 185.167 159.473 184.527C159.1 183.877 158.913 183.135 158.913 182.303C158.913 181.471 159.089 180.735 159.441 180.095C159.804 179.455 160.294 178.954 160.913 178.591C161.542 178.218 162.246 178.031 163.025 178.031C163.814 178.031 164.513 178.213 165.121 178.575C165.74 178.927 166.225 179.429 166.577 180.079C166.929 180.719 167.105 181.461 167.105 182.303C167.105 182.357 167.1 182.415 167.089 182.479C167.089 182.533 167.089 182.591 167.089 182.655H159.777V181.807H166.481L166.033 182.143C166.033 181.535 165.9 180.997 165.633 180.527C165.377 180.047 165.025 179.674 164.577 179.407C164.129 179.141 163.612 179.007 163.025 179.007C162.449 179.007 161.932 179.141 161.473 179.407C161.014 179.674 160.657 180.047 160.401 180.527C160.145 181.007 160.017 181.557 160.017 182.175V182.351C160.017 182.991 160.156 183.557 160.433 184.047C160.721 184.527 161.116 184.906 161.617 185.183C162.129 185.45 162.71 185.583 163.361 185.583C163.873 185.583 164.348 185.493 164.785 185.311C165.233 185.13 165.617 184.853 165.937 184.479L166.577 185.215C166.204 185.663 165.734 186.005 165.169 186.239C164.614 186.474 164.001 186.591 163.329 186.591ZM125.465 206.607C125.465 206.607 125.443 206.607 125.401 206.607C125.358 206.607 125.315 206.607 125.273 206.607C125.241 206.607 125.214 206.607 125.193 206.607C123.529 206.597 122.233 206.218 121.305 205.471C120.377 204.725 119.913 203.663 119.913 202.287C119.913 200.933 120.377 199.887 121.305 199.151C122.243 198.405 123.561 198.026 125.257 198.015C125.267 198.015 125.289 198.015 125.321 198.015C125.363 198.015 125.401 198.015 125.433 198.015C125.465 198.015 125.486 198.015 125.497 198.015C127.203 198.026 128.531 198.405 129.481 199.151C130.43 199.887 130.905 200.933 130.905 202.287C130.905 203.674 130.425 204.741 129.465 205.487C128.515 206.234 127.182 206.607 125.465 206.607ZM125.449 205.615C126.398 205.615 127.193 205.487 127.833 205.231C128.473 204.965 128.958 204.586 129.289 204.095C129.619 203.605 129.785 203.002 129.785 202.287C129.785 201.594 129.619 201.007 129.289 200.527C128.958 200.037 128.473 199.663 127.833 199.407C127.193 199.151 126.398 199.023 125.449 199.023C125.438 199.023 125.406 199.023 125.353 199.023C125.31 199.023 125.283 199.023 125.273 199.023C124.345 199.023 123.566 199.157 122.937 199.423C122.307 199.679 121.833 200.047 121.513 200.527C121.193 201.007 121.033 201.594 121.033 202.287C121.033 202.991 121.193 203.589 121.513 204.079C121.843 204.57 122.323 204.949 122.953 205.215C123.582 205.471 124.355 205.605 125.273 205.615C125.294 205.615 125.326 205.615 125.369 205.615C125.411 205.615 125.438 205.615 125.449 205.615ZM124.841 209.615V194.639H125.945V209.615H124.841ZM136.763 206.591C135.953 206.591 135.222 206.41 134.571 206.047C133.931 205.674 133.425 205.167 133.051 204.527C132.678 203.877 132.491 203.135 132.491 202.303C132.491 201.461 132.678 200.719 133.051 200.079C133.425 199.439 133.931 198.938 134.571 198.575C135.211 198.213 135.942 198.031 136.763 198.031C137.595 198.031 138.331 198.213 138.971 198.575C139.622 198.938 140.129 199.439 140.491 200.079C140.865 200.719 141.051 201.461 141.051 202.303C141.051 203.135 140.865 203.877 140.491 204.527C140.129 205.167 139.622 205.674 138.971 206.047C138.321 206.41 137.585 206.591 136.763 206.591ZM136.763 205.583C137.371 205.583 137.91 205.45 138.379 205.183C138.849 204.906 139.217 204.522 139.483 204.031C139.761 203.53 139.899 202.954 139.899 202.303C139.899 201.642 139.761 201.066 139.483 200.575C139.217 200.085 138.849 199.706 138.379 199.439C137.91 199.162 137.377 199.023 136.779 199.023C136.182 199.023 135.649 199.162 135.179 199.439C134.71 199.706 134.337 200.085 134.059 200.575C133.782 201.066 133.643 201.642 133.643 202.303C133.643 202.954 133.782 203.53 134.059 204.031C134.337 204.522 134.71 204.906 135.179 205.183C135.649 205.45 136.177 205.583 136.763 205.583ZM144.767 206.511V198.799L145.055 199.103H141.583V198.111H149.087V199.103H145.615L145.903 198.799V206.511H144.767ZM153.794 206.591C152.984 206.591 152.253 206.41 151.602 206.047C150.962 205.674 150.456 205.167 150.082 204.527C149.709 203.877 149.522 203.135 149.522 202.303C149.522 201.461 149.709 200.719 150.082 200.079C150.456 199.439 150.962 198.938 151.602 198.575C152.242 198.213 152.973 198.031 153.794 198.031C154.626 198.031 155.362 198.213 156.002 198.575C156.653 198.938 157.16 199.439 157.522 200.079C157.896 200.719 158.082 201.461 158.082 202.303C158.082 203.135 157.896 203.877 157.522 204.527C157.16 205.167 156.653 205.674 156.002 206.047C155.352 206.41 154.616 206.591 153.794 206.591ZM153.794 205.583C154.402 205.583 154.941 205.45 155.41 205.183C155.88 204.906 156.248 204.522 156.514 204.031C156.792 203.53 156.93 202.954 156.93 202.303C156.93 201.642 156.792 201.066 156.514 200.575C156.248 200.085 155.88 199.706 155.41 199.439C154.941 199.162 154.408 199.023 153.81 199.023C153.213 199.023 152.68 199.162 152.21 199.439C151.741 199.706 151.368 200.085 151.09 200.575C150.813 201.066 150.674 201.642 150.674 202.303C150.674 202.954 150.813 203.53 151.09 204.031C151.368 204.522 151.741 204.906 152.21 205.183C152.68 205.45 153.208 205.583 153.794 205.583Z" fill="black"/>
</svg>
